<?xml version="1.0" encoding="UTF-8" standalone="no"?>
<!-- Created with Inkscape (http://www.inkscape.org/) -->

<svg
   xmlns:dc="http://purl.org/dc/elements/1.1/"
   xmlns:cc="http://creativecommons.org/ns#"
   xmlns:rdf="http://www.w3.org/1999/02/22-rdf-syntax-ns#"
   xmlns:svg="http://www.w3.org/2000/svg"
   xmlns="http://www.w3.org/2000/svg"
   xmlns:inkscape="http://www.inkscape.org/namespaces/inkscape"
   version="1.1"
   width="594.15002"
   height="110.5375"
   id="svg2"
   xml:space="preserve"><metadata
     id="metadata8"><rdf:RDF><cc:Work
         rdf:about=""><dc:format>image/svg+xml</dc:format><dc:type
           rdf:resource="http://purl.org/dc/dcmitype/StillImage" /></cc:Work></rdf:RDF></metadata><defs
     id="defs6" /><g
     transform="matrix(1.25,0,0,-1.25,0,110.5375)"
     id="g10"><g
       transform="scale(0.1,0.1)"
       id="g12"><path
         d="m 4162.43,266.855 0,272.446 -96.55,0 0,78.137 279.8,0 0,-78.137 -96.51,0 0,-272.446 -86.74,0"
         inkscape:connector-curvature="0"
         id="path14"
         style="fill:#ffffff;fill-opacity:1;fill-rule:nonzero;stroke:none" /><path
         d="m 4448.46,266.797 0,249.125 -56.79,-58.797 -50.55,50.516 112.84,109.718 75.52,0 0,-350.562 -81.02,0"
         inkscape:connector-curvature="0"
         id="path16"
         style="fill:#ffffff;fill-opacity:1;fill-rule:nonzero;stroke:none" /><path
         d="m 3960.63,485.902 c 9.83,78.137 45.54,151.387 101.52,207.313 67.16,67.168 156.47,104.238 251.49,104.34 94.92,0 184.15,-36.856 251.15,-103.867 55.92,-56 91.62,-129.395 101.1,-207.786 l 87.26,0 c -9.95,101.641 -54.8,196.875 -127.06,269.133 -83.32,83.344 -194.26,129.227 -312.18,129.227 -118.28,0 -229.45,-46.039 -313.11,-129.707 -72.21,-72.227 -117.17,-167.25 -127.38,-268.653 l 87.21,0"
         inkscape:connector-curvature="0"
         id="path18"
         style="fill:#ffffff;fill-opacity:1;fill-rule:nonzero;stroke:none" /><path
         d="m 4665.78,398.375 c -9.82,-78.141 -45.59,-151.422 -101.51,-207.34 -67.11,-67.148 -156.48,-104.1991 -251.48,-104.2967 -94.85,0 -184.12,36.8557 -251.1,103.8477 -56,55.957 -91.66,129.375 -101.19,207.789 l -87.19,0 c 9.93,-101.598 54.81,-196.871 127.06,-269.098 C 4083.69,45.9375 4194.61,0 4312.56,0 l 0.11,0 c 118.1,0 229.25,46.0352 312.97,129.727 72.23,72.207 117.21,167.265 127.31,268.648 l -87.17,0"
         inkscape:connector-curvature="0"
         id="path20"
         style="fill:#ffffff;fill-opacity:1;fill-rule:nonzero;stroke:none" /><path
         d="m 245.062,326.23 -2.617,0 -148.2419,353.106 -94.2031,0 0,-466.484 63.2266,0 0,383.453 1.3789,0 157.4565,-383.453 42.122,0 157.402,383.453 1.324,0 0,-383.453 63.25,0 0,466.484 -94.203,0 L 245.062,326.23"
         inkscape:connector-curvature="0"
         id="path22"
         style="fill:#ffffff;fill-opacity:1;fill-rule:nonzero;stroke:none" /><path
         d="m 614.734,394.691 c 0,41.563 38.176,90.969 96.825,90.969 59.918,0 88.933,-38.887 90.312,-90.969 l -187.137,0 z m 98.172,138.371 c -93.566,0 -161.398,-70.488 -161.398,-163.98 0,-92.969 61.875,-164.16 160.762,-164.16 59.894,0 105.382,21.133 138.371,63.867 l -44.797,34.336 c -23.09,-28.32 -49.461,-46.758 -85.707,-46.758 -54.672,0 -105.403,36.211 -105.403,90.918 l 250.411,0 0,21.113 c 0,80.348 -42.149,164.664 -152.239,164.664"
         inkscape:connector-curvature="0"
         id="path24"
         style="fill:#ffffff;fill-opacity:1;fill-rule:nonzero;stroke:none" /><path
         d="m 1070.69,260.293 c -63.36,0 -102.815,45.508 -102.815,108.789 0,63.18 39.455,108.668 102.815,108.668 63.14,0 102.72,-45.488 102.72,-108.668 0,-63.281 -39.58,-108.789 -102.72,-108.789 z m 102.72,419.043 0,-198.941 -1.3,0 c -21.12,32.218 -63.91,52.667 -108.71,52.667 -96.158,0 -158.752,-70.488 -158.752,-163.98 0,-92.266 61.907,-156.23 158.752,-156.23 42.15,0 108.71,0 108.71,0 l 60.59,0 0,466.484 -59.29,0"
         inkscape:connector-curvature="0"
         id="path26"
         style="fill:#ffffff;fill-opacity:1;fill-rule:nonzero;stroke:none" /><path
         d="m 1310.48,212.852 59.3711,0 0,312.367 -59.3711,0 0,-312.367 z"
         inkscape:connector-curvature="0"
         id="path28"
         style="fill:#ffffff;fill-opacity:1;fill-rule:nonzero;stroke:none" /><path
         d="m 1647.85,343.379 c 0,-42.207 -23.14,-90.957 -88.96,-90.957 -40.86,0 -67.28,15.156 -67.28,50.703 0,50.039 68.65,60.059 124.52,60.059 l 31.72,0 0,-19.805 z m -75.14,189.683 c -43.47,0 -90.92,-15.097 -123.83,-46.074 l 35.5,-36.855 c 21.77,16.433 43.53,35.527 88.96,35.527 50.73,0 74.51,-33.574 74.51,-65.93 l 0,-13.203 -43.53,0 c -94.84,0 -171.94,-27.562 -171.94,-107.992 0,-60.586 50.1,-85.683 108.03,-85.683 47.39,0 109.34,0 109.34,0 l 53.31,0 c 0,0 0,34.941 0,56.66 l 0,159.468 c 0,54.032 -38.11,104.082 -130.35,104.082"
         inkscape:connector-curvature="0"
         id="path30"
         style="fill:#ffffff;fill-opacity:1;fill-rule:nonzero;stroke:none" /><path
         d="m 2532.4,343.379 c 0,-42.207 -23.08,-90.957 -88.98,-90.957 -40.83,0 -67.18,15.156 -67.18,50.703 0,50.039 68.55,60.059 124.55,60.059 l 31.61,0 0,-19.805 z m -75.08,189.683 c -43.5,0 -91,-15.097 -123.92,-46.074 l 35.56,-36.855 c 21.77,16.433 43.61,35.527 89.08,35.527 50.61,0 74.36,-33.574 74.36,-65.93 l 0,-13.203 -43.44,0 c -95,0 -171.88,-27.562 -171.88,-107.992 0,-60.586 49.95,-85.683 107.96,-85.683 47.48,0 109.4,0 109.4,0 l 53.35,0 c 0,0 0,34.941 0,56.66 l 0,159.468 c 0,54.032 -38.26,104.082 -130.47,104.082"
         inkscape:connector-curvature="0"
         id="path32"
         style="fill:#ffffff;fill-opacity:1;fill-rule:nonzero;stroke:none" /><path
         d="m 2028.64,326.23 -2.7,0 -148.17,353.106 -94.25,0 0,-466.484 63.27,0 0,383.453 1.3,0 157.49,-383.453 42.17,0 157.43,383.453 1.32,0 0,-383.453 63.29,0 0,466.484 -94.21,0 -146.94,-353.106"
         inkscape:connector-curvature="0"
         id="path34"
         style="fill:#ffffff;fill-opacity:1;fill-rule:nonzero;stroke:none" /><path
         d="m 2761.41,332.207 0,141.586 84.9,0 0,51.426 -84.9,0 0,87.586 -59.35,0 0,-87.586 -68.54,0 0,-51.426 68.54,0 0,-162.777 c 0,-50.039 1.31,-106.094 92.88,-106.094 11.9,0 39.48,2.695 53.39,10.566 l 0,54.024 c -11.94,-7.266 -28.45,-9.219 -42.21,-9.219 -44.71,0 -44.71,36.953 -44.71,71.914"
         inkscape:connector-curvature="0"
         id="path36"
         style="fill:#ffffff;fill-opacity:1;fill-rule:nonzero;stroke:none" /><path
         d="m 3069.64,533.062 c -48.08,0 -102.73,0 -102.73,0 l -1.35,146.274 -59.31,0 0,-466.484 59.31,0 0,160.82 c 0,72.426 37.6,104.078 86.93,104.078 37.6,0 71.22,-21.738 71.22,-80.363 l 0,-184.535 59.2,0 0,201 c 0,82.96 -52.53,119.21 -113.27,119.21"
         inkscape:connector-curvature="0"
         id="path38"
         style="fill:#ffffff;fill-opacity:1;fill-rule:nonzero;stroke:none" /><path
         d="m 1310.48,575.363 59.3711,0 0,59.2812 -59.3711,0 0,-59.2812 z"
         inkscape:connector-curvature="0"
         id="path40"
         style="fill:#ffffff;fill-opacity:1;fill-rule:nonzero;stroke:none" /><path
         d="m 3538.59,53.9844 -25.84,0 0,776.2926 25.84,0 0,-776.2926"
         inkscape:connector-curvature="0"
         id="path42"
         style="fill:#ffffff;fill-opacity:1;fill-rule:nonzero;stroke:none" /></g></g></svg>